<svg xmlns="http://www.w3.org/2000/svg" width="2010" height="2010">

 <style>.s0{fill:#ab514b;}.s1{fill:#c5ad64;}.s2{fill:#29da94;}.s3{fill:#0b63a5;}.s4{fill:#a666c9;}.s5{fill:#ffbf01;}</style>
 <g class="currentLayer"><path id="svg_13" fill="#f09000" d="m1193.33325,8c-115.6,9.7 -171.3,22.1 -226,37.7c-255.8,73.2 -463.8,249.7 -595.5,478.3c-199.8,346.9 -149.4,807.4 102.2,1113.7c136.3,165.9 323.9,285.1 532.3,337.2c102.9,25.7 216.6,40.1 322,23.4c59.8,-9.4 117.6,-30.5 170,-60.6c48.6,-27.9 92.5,-64.1 128.9,-106.7c185.5,-216.9 149.3,-555.1 -79.9,-726.5c-63.9,-47.8 -140.1,-80.3 -219,-92.8c-64.7,-10.2 -129.8,-4.2 -194,-19.6c-118.6,-28.4 -223.3,-98.9 -294.3,-198.2c-178.1,-249.1 -81.8,-615.5 198.2,-742.8c46.9,-21.3 104.58067,-33.48655 155.1,-43.1z" opacity="1" stroke-dasharray="2,2" class="" fill-opacity="1"/><path id="svg_500" fill="#b26b00" d="m1231.33325,255.6c-31.4,1.8 -64,10.2 -92,24.6c-150.9,77.4 -188.3,280.1 -67,401.8c21,21 45.2,38.2 72.4,50.4c38.4,17.3 78.8,23.6 120.6,21.9c31.7,-1.2 64.8,-10.6 93,-25c114.7,-58.6 168.3,-192.5 123.5,-313.8c-13.7,-36.9 -37,-66.6 -64.2,-94.4c-20.8,-21.3 -49.3,-37.1 -76.7,-48.3c-34.5,-14.1 -72.6,-19.3 -109.6,-17.2z" opacity="1" stroke-dasharray="2,2" class="" fill-opacity="1"/>
  <title>Layer 1</title>
  
   
   
  
 <path fill="#ffab2e" fill-opacity="1" stroke="none" stroke-opacity="1" stroke-width="1" stroke-dasharray="2,2" stroke-linejoin="miter" stroke-linecap="butt" stroke-dashoffset="" fill-rule="nonzero" opacity="1" marker-start="" marker-mid="" marker-end="" d="M1386.1788909281704,1285.001356660689 C1386.1788909281704,1175.98872571528 1427.8438006097329,1087.6884946494988 1479.2819607104275,1087.6884946494988 C1530.720120811122,1087.6884946494988 1572.3850304926846,1175.98872571528 1572.3850304926846,1285.001356660689 C1572.3850304926846,1394.0139876060975 1530.720120811122,1482.3142186718787 1479.2819607104275,1482.3142186718787 C1427.8438006097329,1482.3142186718787 1386.1788909281704,1394.0139876060975 1386.1788909281704,1285.001356660689 z" id="svg_1" class="" transform="rotate(-43.204837799072266 1479.281982421875,1285.0013427734373) "/></g>
 <g>
  <title>Layer 2</title>
  <rect fill="none" y="0" x="0" height="100%" width="100%" id="backgroundrect"/>
 </g>
 <g>
  <title>background</title>
  <rect fill="none" id="canvas_background" height="402" width="582" y="-1" x="-1"/>
 </g>
</svg>